<svg id="Layer_1" data-name="Layer 1" xmlns="http://www.w3.org/2000/svg" viewBox="0 0 64 64"><defs><style>.cls-1{fill:#f6a942;}.cls-2{fill:#23204c;}</style></defs><title>Jobbr_Hell_FaviconArtboard 5 copy 2</title><path class="cls-1" d="M5,20.87v22a8,8,0,0,0,4,6.92L28,60.81a8,8,0,0,0,8,0l19.06-11a8,8,0,0,0,4-6.92v-22a8,8,0,0,0-4-6.92L36,2.95a8,8,0,0,0-8,0L8.95,14A8,8,0,0,0,5,20.87Z"/><path class="cls-2" d="M41.95,50.74,24.12,40.07a6.29,6.29,0,0,1-3.06-5.49L21.4,13.8c0-.07,0-.13,0-.19l-7.17,4A6.29,6.29,0,0,0,11,23l-.27,17.32a6.29,6.29,0,0,0,3.06,5.49l14.86,8.9a6.29,6.29,0,0,0,6.29.1l7.17-4Z"/></svg>