<svg id="Layer_1" data-name="Layer 1" xmlns="http://www.w3.org/2000/svg" viewBox="0 0 64 64"><defs><style>.cls-1{fill:#23204c;}.cls-2{fill:#f6a942;}</style></defs><title>Jobbr_Dunkel_FaviconArtboard 5 copy</title><path class="cls-1" d="M5.09,21.26v22a8,8,0,0,0,4,6.92l19.06,11a8,8,0,0,0,8,0l19.06-11a8,8,0,0,0,4-6.92v-22a8,8,0,0,0-4-6.92l-19.06-11a8,8,0,0,0-8,0l-19.06,11A8,8,0,0,0,5.09,21.26Z"/><path class="cls-2" d="M42.08,51.12,24.26,40.45A6.29,6.29,0,0,1,21.2,35l.33-20.77c0-.07,0-.13,0-.19l-7.17,4a6.29,6.29,0,0,0-3.23,5.39L10.89,40.7a6.29,6.29,0,0,0,3.06,5.49l14.86,8.9a6.29,6.29,0,0,0,6.29.1l7.17-4Z"/></svg>