<svg id="Layer_1" data-name="Layer 1" xmlns="http://www.w3.org/2000/svg" viewBox="0 0 947 512"><defs><style>.cls-1{fill:#f8b543;}.cls-2{fill:#23204c;}.cls-3{fill:#f6a942;}.cls-4{fill:#fae0b3;}</style></defs><title>Jobbr_HellArtboard 1</title><path class="cls-1" d="M115.55,209.69v95.18a34.54,34.54,0,0,0,17.27,29.91l82.43,47.59a34.54,34.54,0,0,0,34.54,0l82.43-47.59a34.54,34.54,0,0,0,17.27-29.91V209.69a34.54,34.54,0,0,0-17.27-29.91l-82.43-47.59a34.54,34.54,0,0,0-34.54,0l-82.43,47.59A34.54,34.54,0,0,0,115.55,209.69Z"/><path class="cls-2" d="M267.14,244.62a2.73,2.73,0,0,1,.65-3.81l10.68-7.55a2.74,2.74,0,0,1,2.92-.15L298,241.17a2.73,2.73,0,0,1-2.69,4.76l-15.12-7.2L271,245.28A2.73,2.73,0,0,1,267.14,244.62Z"/><path class="cls-2" d="M252.62,224.48a2.73,2.73,0,0,0,3.81.65l10.68-7.55a2.74,2.74,0,0,0,1.11-2.71l-2-18.36a2.73,2.73,0,0,0-5.38.95l1.75,16.66-9.26,6.55A2.73,2.73,0,0,0,252.62,224.48Z"/><path class="cls-2" d="M221.53,231l22.36,10.3a7.45,7.45,0,0,1,4.3,6.08l2.26,24.52c0,.08,0,.15,0,.23l7.94-5.61a7.45,7.45,0,0,0,3.12-6.77l-1.88-20.45a7.45,7.45,0,0,0-4.3-6.08l-18.65-8.59a7.45,7.45,0,0,0-7.42.68l-7.94,5.61C221.38,230.95,221.46,231,221.53,231Z"/><path class="cls-2" d="M208.19,235.18,188.7,249a8.66,8.66,0,0,0-3.62,7.87l2.19,23.76a8.66,8.66,0,0,0,5,7.07l21.67,10a8.66,8.66,0,0,0,8.62-.79L242,283.07a8.66,8.66,0,0,0,3.62-7.87l-2.19-23.76a8.66,8.66,0,0,0-5-7.07l-21.67-10A8.66,8.66,0,0,0,208.19,235.18Z"/><path class="cls-3" d="M231.39,285.37,209,275.07a7.45,7.45,0,0,1-4.3-6.08l-2.26-24.52c0-.08,0-.15,0-.23l-7.94,5.61a7.45,7.45,0,0,0-3.12,6.77l1.88,20.45a7.45,7.45,0,0,0,4.3,6.08l18.65,8.59a7.45,7.45,0,0,0,7.42-.68l7.94-5.61C231.54,285.41,231.46,285.4,231.39,285.37Z"/><path class="cls-2" d="M166.27,296.17a5.14,5.14,0,0,0,4.3,6.08c7,2.15,38.47-.86,38.47-.86s-.15,0-.22-.07L186.46,291a7.45,7.45,0,0,1-4.3-6.08l-2.26-24.52c0-.08,0-.15,0-.23S166.57,288.86,166.27,296.17Z"/><path class="cls-4" d="M246.56,285.82l-14,9.93,26,36.75a5.5,5.5,0,0,0,4,2.3L297,338.14a5.5,5.5,0,0,0,6-6.13l-2.25-18.53a5.5,5.5,0,0,0-2.91-4.21l-45.55-23.84A5.5,5.5,0,0,0,246.56,285.82Z"/><path class="cls-4" d="M228.74,298.42l22.62,32a5.58,5.58,0,0,1,.52,5.54l-.18.38a5.47,5.47,0,0,1-6.18,3.06l-22.67-5.15a5.58,5.58,0,0,1-4.34-5.75l1.13-21.05a5.58,5.58,0,0,1,2.35-4.26Z"/><path class="cls-4" d="M207.11,230l-14,9.93-26-36.75a5.5,5.5,0,0,1-.85-4.5L174.6,165a5.5,5.5,0,0,1,7.78-3.6l16.72,8.3a5.5,5.5,0,0,1,3,4.14l7.29,50.9A5.5,5.5,0,0,1,207.11,230Z"/><path class="cls-4" d="M189.28,242.61l-22.62-32a5.58,5.58,0,0,0-5.05-2.34l-.42,0a5.47,5.47,0,0,0-4.95,4.81l-2.71,23.09a5.58,5.58,0,0,0,4,6l20.22,6a5.58,5.58,0,0,0,4.8-.8Z"/><path class="cls-2" d="M521.55,311.77a53,53,0,0,1-3.86,20.29,50.8,50.8,0,0,1-10.49,16.25,49,49,0,0,1-15.56,10.8,48.11,48.11,0,0,1-38.19,0,49.49,49.49,0,0,1-15.6-10.8,50.41,50.41,0,0,1-10.53-16.25,53,53,0,0,1-3.86-20.29,53.78,53.78,0,0,1,3.86-20.52,50.33,50.33,0,0,1,10.53-16.3,49.12,49.12,0,0,1,15.6-10.76,47,47,0,0,1,19.05-3.9A49.74,49.74,0,0,1,491.65,264,46.16,46.16,0,0,1,507.2,274.4a49.45,49.45,0,0,1,10.49,16.25A55.63,55.63,0,0,1,521.55,311.77Zm-24.65,0A29.23,29.23,0,0,0,495,300.91a25.85,25.85,0,0,0-5.24-8.35A22.65,22.65,0,0,0,482,287.2a25,25,0,0,0-18.92,0,22.19,22.19,0,0,0-7.71,5.36,25.65,25.65,0,0,0-5.16,8.35,29.85,29.85,0,0,0-1.88,10.86,28.38,28.38,0,0,0,1.88,10.44,26.21,26.21,0,0,0,5.16,8.35,24.21,24.21,0,0,0,7.71,5.59,22.38,22.38,0,0,0,9.46,2,23.67,23.67,0,0,0,17.21-7.26,25.23,25.23,0,0,0,5.24-8.35A29.31,29.31,0,0,0,496.89,311.77Z"/><path class="cls-2" d="M635.78,311.77a54.78,54.78,0,0,1-3.86,20.88,49.56,49.56,0,0,1-10.49,16.21,46.72,46.72,0,0,1-15.56,10.49,49.22,49.22,0,0,1-19.14,3.72,48.14,48.14,0,0,1-34.65-14.43,49.92,49.92,0,0,1-10.53-16.21,53.89,53.89,0,0,1-3.86-20.65V225.33h24.57v45.39a22.44,22.44,0,0,1,4.8-4.54,28.47,28.47,0,0,1,6.1-3.27,40,40,0,0,1,6.77-1.95,35.46,35.46,0,0,1,6.81-.68,47.62,47.62,0,0,1,34.7,14.61,51.38,51.38,0,0,1,10.49,16.3A53.66,53.66,0,0,1,635.78,311.77Zm-24.65,0a28.16,28.16,0,0,0-1.93-10.49,26.39,26.39,0,0,0-5.24-8.4,24.14,24.14,0,0,0-7.76-5.54,22.81,22.81,0,0,0-9.46-2,20.78,20.78,0,0,0-9.46,2.23,26.07,26.07,0,0,0-7.76,5.9,27.66,27.66,0,0,0-5.2,8.44,26.58,26.58,0,0,0-1.88,9.85,28.38,28.38,0,0,0,1.88,10.44,25.8,25.8,0,0,0,5.2,8.35,24.74,24.74,0,0,0,7.76,5.59,23,23,0,0,0,18.92,0,24.74,24.74,0,0,0,7.76-5.59,26.43,26.43,0,0,0,5.24-8.35A27.8,27.8,0,0,0,611.13,311.77Z"/><path class="cls-2" d="M750,311.77a54.78,54.78,0,0,1-3.86,20.88,49.56,49.56,0,0,1-10.49,16.21,46.72,46.72,0,0,1-15.56,10.49A49.22,49.22,0,0,1,701,363.07a48.14,48.14,0,0,1-34.65-14.43,49.92,49.92,0,0,1-10.53-16.21,53.89,53.89,0,0,1-3.86-20.65V225.33H676.5v45.39a22.44,22.44,0,0,1,4.8-4.54,28.47,28.47,0,0,1,6.1-3.27,40,40,0,0,1,6.77-1.95,35.46,35.46,0,0,1,6.81-.68,47.62,47.62,0,0,1,34.7,14.61,51.38,51.38,0,0,1,10.49,16.3A53.66,53.66,0,0,1,750,311.77Zm-24.65,0a28.16,28.16,0,0,0-1.93-10.49,26.39,26.39,0,0,0-5.24-8.4,24.14,24.14,0,0,0-7.76-5.54,22.81,22.81,0,0,0-9.46-2,20.78,20.78,0,0,0-9.46,2.23,26.07,26.07,0,0,0-7.76,5.9,27.66,27.66,0,0,0-5.2,8.44,26.58,26.58,0,0,0-1.88,9.85,28.38,28.38,0,0,0,1.88,10.44,25.8,25.8,0,0,0,5.2,8.35,24.74,24.74,0,0,0,7.76,5.59,23,23,0,0,0,18.92,0,24.74,24.74,0,0,0,7.76-5.59,26.43,26.43,0,0,0,5.24-8.35A27.8,27.8,0,0,0,725.36,311.77Z"/><path class="cls-2" d="M792.62,361.25H768.15V264h5.92l8.07,11.53a43,43,0,0,1,29-11.35h21.61v24.7H811.18a18.32,18.32,0,0,0-17.12,11.44,19,19,0,0,0-1.43,7.36Z"/><path class="cls-2" d="M372,206.51l.21,116.9A19.14,19.14,0,0,1,362.71,340L308,371.82c-.17.1-.37.13-.55.23l21.68,12.42a19.14,19.14,0,0,0,19.14-.06l45.59-26.52a19.14,19.14,0,0,0,9.52-16.61l-.17-106.38a19.14,19.14,0,0,0-9.63-16.55l-21.68-12.42C371.95,206.12,372,206.31,372,206.51Z"/></svg>